<svg width="30" height="34" viewBox="0 0 30 34" fill="none" xmlns="http://www.w3.org/2000/svg">
<path fill-rule="evenodd" clip-rule="evenodd" d="M14.8523 0.15625C15.5013 0.15625 16.0275 0.682369 16.0275 1.33137V12.6203L21.688 2.83225C21.9542 2.37196 22.4963 2.14777 23.0098 2.28557C23.5234 2.42337 23.8804 2.88883 23.8804 3.42054V10.4211L27.8104 8.14825C28.174 7.938 28.6221 7.93775 28.9859 8.14761C29.3497 8.35747 29.5739 8.74552 29.5739 9.16551V24.9644C29.5739 25.387 29.347 25.777 28.9796 25.9859L15.4332 33.6894C15.0719 33.8949 14.629 33.8942 14.2683 33.6876L0.591054 25.8535C0.225503 25.6441 0 25.2551 0 24.8338V9.16551C0 8.7464 0.223214 8.35901 0.585813 8.14883C0.948412 7.93866 1.3955 7.9375 1.75918 8.14581L5.75887 10.4368V3.42054C5.75887 2.88962 6.11487 2.42464 6.6274 2.28612C7.13993 2.1476 7.68168 2.36995 7.94913 2.82859L13.6772 12.6516V1.33137C13.6772 0.682369 14.2033 0.15625 14.8523 0.15625ZM11.624 13.7962L8.10912 7.76854V11.7829L11.624 13.7962ZM6.34992 13.4838L2.35024 11.1928V24.1526L13.6772 30.6406V17.6808L6.34992 13.4838ZM16.0275 17.6775V30.6478L27.2236 24.2808V11.2026L23.2936 13.4754L16.0275 17.6775ZM18.0715 13.7805L21.5302 11.7803V7.79984L18.0715 13.7805Z" fill="#024F40"/>
</svg>
